<?xml version="1.0" encoding="UTF-8"?>
<svg width="32px" height="32px" viewBox="0 0 32 32" version="1.1" xmlns="http://www.w3.org/2000/svg" xmlns:xlink="http://www.w3.org/1999/xlink">
    <!-- Generator: Sketch 50.2 (55047) - http://www.bohemiancoding.com/sketch -->
    <title>github</title>
    <desc>Created with Sketch.</desc>
    <defs></defs>
    <g id="Symbols" stroke="none" stroke-width="1" fill="none" fill-rule="evenodd" opacity="0.9">
        <g id="github" fill="#3E3E3E" fill-rule="nonzero">
            <g id="Shape">
                <path d="M16,0 C7.16397089,0 0,7.16397089 0,16 C0,24.8370177 7.16397089,32 16,32 C24.8360291,32 32,24.8370177 32,16 C31.9998902,7.16397089 24.8359193,0 16,0 Z M20.4818893,28.1889331 C20.3898394,26.9369216 20.2869147,25.3859124 20.2808733,24.7579294 C20.2408897,24.2759302 20.1888233,23.0499519 19.0249073,22.2669779 C23.6458602,21.8799945 25.8448442,19.325992 26.0029109,15.9510092 C26.1349444,14.029054 25.3708637,12.3389812 24.0139503,10.9750378 C24.0829329,9.51607854 23.9699025,7.78701085 23.8759852,7.02710422 C22.833997,6.72711795 20.4040093,8.01010573 19.7249485,8.55911026 C18.2929013,8.00307566 14.787972,7.80810106 12.6579706,8.55911026 C11.1479335,7.4971303 9.42897158,6.84113689 8.49199506,7.0241384 C7.62696691,8.94115062 8.18300151,10.7531512 8.35194288,10.9691061 C7.23789647,11.9871482 5.68392146,13.2401483 6.10594535,15.8651105 C6.78291913,19.7140739 9.49092407,21.7901414 13.8508856,22.298064 C12.9209392,22.4880956 12.763861,23.1820953 12.6858712,23.4830702 C9.75784704,24.6910339 8.92093917,22.7371138 8.55087189,22.2280928 C7.32192778,20.7070713 6.21886585,21.1480983 6.15087189,21.1720445 C6.08485514,21.1959907 6.03487574,21.2919951 6.04190581,21.33802 C6.1038583,21.6660168 6.77292325,21.9990663 6.8058767,22.0259783 C7.71286558,22.7019635 8.04888096,23.9229988 8.25582864,24.2709872 C9.55683098,26.4099959 12.5808595,25.5229988 12.6098586,25.5410133 C12.6118358,25.7279692 12.5888782,27.3020459 12.5708637,28.5270356 C7.05698201,27.0209529 2.99997254,21.9909378 2.99997254,16 C2.99997254,8.81999176 8.81999176,3.00008238 15.9998902,3.00008238 C23.1797885,3.00008238 28.9999176,8.81999176 28.9999176,16 C28.9999176,21.6029658 25.4499519,26.3618838 20.4818893,28.1889331 Z"></path>
            </g>
        </g>
    </g>
</svg>