<?xml version="1.0" encoding="UTF-8"?>
<svg width="32px" height="32px" viewBox="0 0 32 32" version="1.1" xmlns="http://www.w3.org/2000/svg" xmlns:xlink="http://www.w3.org/1999/xlink">
    <!-- Generator: Sketch 50.2 (55047) - http://www.bohemiancoding.com/sketch -->
    <title>linkedin</title>
    <desc>Created with Sketch.</desc>
    <defs></defs>
    <g id="Symbols" stroke="none" stroke-width="1" fill="none" fill-rule="evenodd" opacity="0.9">
        <g id="linkedin" fill="#3E3E3E" fill-rule="nonzero">
            <g id="Combined-Shape">
                <path d="M15.9999451,0 C24.8369931,0 32,7.16399548 32,16.0000549 C32,24.8361144 24.8369931,32 15.9999451,32 C7.16289703,32 0,24.8360045 0,16.0000549 C0,7.16410533 7.16300688,0 15.9999451,0 Z M9.01598591,21.9839832 L12.0120143,21.9839832 L12.0120143,11.9979541 L9.01598591,11.9979541 L9.01598591,21.9839832 Z M20.6880293,11.6520515 C19.2340081,11.6520515 17.9330013,12.1830433 17.0100817,13.3550918 L17.0100817,11.9651104 L14.0030688,11.9651104 L14.0030688,21.984093 L17.0100817,21.984093 L17.0100817,16.5660873 C17.0100817,15.4210608 18.0591036,14.3040447 19.3730721,14.3040447 C20.6870407,14.3040447 21.0110841,15.4210608 21.0110841,16.5380768 L21.0110841,21.9831044 L24.0071125,21.9831044 L24.0071125,16.315091 C24.0070026,12.3780186 22.1430391,11.6520515 20.6880293,11.6520515 Z M10.4999949,11.0000103 C11.3280081,11.0000103 12.0000412,10.3279772 12.0000412,9.49996396 C12.0000412,8.67195068 11.3280081,8.00002746 10.4999949,8.00002746 C9.67198157,8.00002746 8.99994851,8.67206052 8.99994851,9.5000738 C8.99994851,10.3280871 9.67198157,11.0000103 10.4999949,11.0000103 Z"></path>
            </g>
        </g>
    </g>
</svg>